<svg width="240" height="211" viewBox="0 0 240 211" fill="none" xmlns="http://www.w3.org/2000/svg">
<path opacity="0.099" d="M116.454 209.045L4.66709 141.236C1.10709 139.182 -1.94291 135.816 1.52509 133.609L113.709 67.2454C115.391 66.1754 117.946 65.4724 119.66 66.4954L236.988 136.399C240.547 138.519 241.186 144.427 237.64 146.569L131.185 208.937C128.962 210.267 126.424 210.977 123.834 210.996C121.244 211.015 118.696 210.341 116.454 209.044V209.045Z" fill="#6862E6"/>
<path d="M116.92 177.687L6.61014 112.507C3.09014 110.507 0.0801427 107.297 3.50014 105.177L114.22 41.3873C115.87 40.3873 118.4 39.6873 120.09 40.6673L235.87 107.857C239.39 109.857 240.02 115.577 236.52 117.637L131.46 177.637C129.25 178.908 126.746 179.582 124.197 179.59C121.647 179.599 119.139 178.943 116.92 177.687Z" fill="#5B36A0"/>
<path d="M116.92 174.677L6.61014 109.497C3.09014 107.497 0.0801427 104.287 3.50014 102.167L114.22 38.3773C115.87 37.3773 118.4 36.6773 120.09 37.6573L235.87 104.847C239.39 106.847 240.02 112.567 236.52 114.627L131.46 174.627C129.25 175.898 126.746 176.572 124.197 176.58C121.647 176.589 119.139 175.933 116.92 174.677Z" fill="#6862E6"/>
<path opacity="0.25" d="M126 88.6873L104.25 101.097C104.25 101.097 137.78 121.557 144.64 124.437L157.18 106.437" fill="url(#paint0_linear_59_166)"/>
<path opacity="0.25" d="M118.5 148.257L96.7301 135.867L75.0001 148.287C75.0001 148.287 86.3401 155.207 97.1801 161.557C104 156.687 110.9 151.767 118.5 148.257Z" fill="url(#paint1_linear_59_166)"/>
<path opacity="0.46" d="M71.5901 71.7273L57.7802 79.6073C57.7802 79.6073 58.9502 86.8273 65.7802 89.7173L83.8902 78.1373" fill="url(#paint2_linear_59_166)"/>
<path d="M78.3501 79.6072C82.9507 79.6072 86.6801 76.9836 86.6801 73.7472C86.6801 70.5108 82.9507 67.8872 78.3501 67.8872C73.7496 67.8872 70.0201 70.5108 70.0201 73.7472C70.0201 76.9836 73.7496 79.6072 78.3501 79.6072Z" fill="#68E1FD"/>
<path d="M78.3401 72.8373C81.7864 72.8373 84.5801 71.6956 84.5801 70.2873C84.5801 68.879 81.7864 67.7373 78.3401 67.7373C74.8938 67.7373 72.1001 68.879 72.1001 70.2873C72.1001 71.6956 74.8938 72.8373 78.3401 72.8373Z" fill="#974C26"/>
<path d="M78.1201 65.9972C78.1201 64.8472 78.1201 63.6972 77.9901 62.5472L77.9001 61.6472L77.8401 61.0672C77.8276 60.865 77.7974 60.6642 77.7501 60.4672L77.6301 59.7672C76.9487 55.859 75.4307 52.1442 73.1801 48.8772C72.3325 50.8928 71.9071 53.0608 71.9301 55.2472C71.9301 55.8972 71.9901 56.5372 72.0401 57.1472V57.5172C72.0401 57.8272 72.1501 58.1672 72.2101 58.4472C72.4669 59.618 72.801 60.7705 73.2101 61.8972C73.5783 62.932 74.0298 63.9353 74.5601 64.8972C75.1301 65.9872 75.7401 67.0472 76.4101 68.0872C76.9201 68.8972 77.4101 69.6172 77.9001 70.3072C78.0478 68.8753 78.1212 67.4367 78.1201 65.9972ZM74.8401 53.0872C74.87 52.9387 74.87 52.7857 74.8401 52.6372C75.0001 52.7972 75.1601 52.9672 75.3101 53.1372C75.1548 53.1072 74.9953 53.1072 74.8401 53.1372V53.0872Z" fill="#999A1C"/>
<path d="M80.2601 66.9171C80.8983 65.9502 81.4825 64.9486 82.0101 63.9171C82.1601 63.6471 82.2901 63.3871 82.4301 63.1171L82.6901 62.5871L82.9401 62.0371C83.0301 61.8171 83.1301 61.5971 83.2201 61.3871C84.7601 57.7301 85.4902 53.7831 85.3601 49.8171C83.5523 51.0528 82.02 52.6497 80.8601 54.5071C80.5201 55.0471 80.2101 55.5971 79.9201 56.1571L79.7901 56.3971V56.4971L79.4301 57.3671C79.0171 58.4891 78.6829 59.6386 78.4301 60.8071C78.1791 61.8826 78.012 62.9758 77.9301 64.0771C77.8201 65.2971 77.7601 66.5171 77.7601 67.7471C77.7601 68.7471 77.7601 69.5771 77.8201 70.4171C78.6201 69.2971 79.4801 68.1271 80.2601 66.9171ZM84.5001 54.2571C84.6033 54.1425 84.6786 54.0057 84.7201 53.8571C84.7201 54.0871 84.8101 54.2971 84.8401 54.5071C84.7425 54.4044 84.6273 54.3197 84.5001 54.2571Z" fill="#999A1C"/>
<path d="M80.2102 69.7873C80.8602 69.4573 81.5002 69.1173 82.1402 68.7373L82.6302 68.4473L82.9402 68.2473L83.2502 68.0273L83.6102 67.7673C85.62 66.2901 87.2878 64.3971 88.5002 62.2173C87.1275 62.3079 85.7873 62.6753 84.5602 63.2973C84.2102 63.4773 83.8702 63.6773 83.5602 63.8873L83.4102 63.9773L82.9302 64.3373C82.3384 64.804 81.7804 65.3119 81.2602 65.8573C80.7823 66.3581 80.3411 66.8929 79.9402 67.4573C79.4802 68.1073 79.0602 68.7473 78.6502 69.3873C78.2402 70.0273 78.0702 70.3873 77.8202 70.8573C78.5702 70.5473 79.4002 70.1873 80.2102 69.7873ZM86.5902 64.3173C86.6815 64.2867 86.7663 64.2392 86.8402 64.1773C86.8402 64.3173 86.7402 64.4473 86.6802 64.5773C86.6699 64.4881 86.6391 64.4025 86.5902 64.3273V64.3173Z" fill="#999A1C"/>
<path d="M78.1201 65.9972C78.1201 64.8472 78.1201 63.6972 77.9901 62.5472L77.9001 61.6472L77.8401 61.0672C77.8276 60.865 77.7974 60.6642 77.7501 60.4672L77.6301 59.7672C76.9487 55.859 75.4307 52.1442 73.1801 48.8772C72.3325 50.8928 71.9071 53.0608 71.9301 55.2472C71.9301 55.8972 71.9901 56.5372 72.0401 57.1472V57.5172C72.0401 57.8272 72.1501 58.1672 72.2101 58.4472C72.4669 59.618 72.801 60.7705 73.2101 61.8972C73.5783 62.932 74.0298 63.9353 74.5601 64.8972C75.1301 65.9872 75.7401 67.0472 76.4101 68.0872C76.9201 68.8972 77.4101 69.6172 77.9001 70.3072C78.0478 68.8753 78.1212 67.4367 78.1201 65.9972ZM74.8401 53.0872C74.87 52.9387 74.87 52.7857 74.8401 52.6372C75.0001 52.7972 75.1601 52.9672 75.3101 53.1372C75.1548 53.1072 74.9953 53.1072 74.8401 53.1372V53.0872Z" fill="#999A1C"/>
<path d="M80.2601 66.9171C80.8983 65.9502 81.4825 64.9486 82.0101 63.9171C82.1601 63.6471 82.2901 63.3871 82.4301 63.1171L82.6901 62.5871L82.9401 62.0371C83.0301 61.8171 83.1301 61.5971 83.2201 61.3871C84.7601 57.7301 85.4902 53.7831 85.3601 49.8171C83.5523 51.0528 82.02 52.6497 80.8601 54.5071C80.5201 55.0471 80.2101 55.5971 79.9201 56.1571L79.7901 56.3971V56.4971L79.4301 57.3671C79.0171 58.4891 78.6829 59.6386 78.4301 60.8071C78.1791 61.8826 78.012 62.9758 77.9301 64.0771C77.8201 65.2971 77.7601 66.5171 77.7601 67.7471C77.7601 68.7471 77.7601 69.5771 77.8201 70.4171C78.6201 69.2971 79.4801 68.1271 80.2601 66.9171ZM84.5001 54.2571C84.6033 54.1425 84.6786 54.0057 84.7201 53.8571C84.7201 54.0871 84.8101 54.2971 84.8401 54.5071C84.7425 54.4044 84.6273 54.3197 84.5001 54.2571Z" fill="#999A1C"/>
<path d="M80.2102 69.7873C80.8602 69.4573 81.5002 69.1173 82.1402 68.7373L82.6302 68.4473L82.9402 68.2473L83.2502 68.0273L83.6102 67.7673C85.62 66.2901 87.2878 64.3971 88.5002 62.2173C87.1275 62.3079 85.7873 62.6753 84.5602 63.2973C84.2102 63.4773 83.8702 63.6773 83.5602 63.8873L83.4102 63.9773L82.9302 64.3373C82.3384 64.804 81.7804 65.3119 81.2602 65.8573C80.7823 66.3581 80.3411 66.8929 79.9402 67.4573C79.4802 68.1073 79.0602 68.7473 78.6502 69.3873C78.2402 70.0273 78.0702 70.3873 77.8202 70.8573C78.5702 70.5473 79.4002 70.1873 80.2102 69.7873ZM86.5902 64.3173C86.6815 64.2867 86.7663 64.2392 86.8402 64.1773C86.8402 64.3173 86.7402 64.4473 86.6802 64.5773C86.6699 64.4881 86.6391 64.4025 86.5902 64.3273V64.3173Z" fill="#999A1C"/>
<path d="M134.66 83.8372L122.66 89.6272C122.2 89.8361 121.806 90.1678 121.522 90.5859C121.238 91.004 121.075 91.4923 121.05 91.9972C121.031 92.5002 121.148 92.9991 121.389 93.441C121.63 93.8829 121.987 94.2513 122.42 94.5072L151 111.177C151.618 111.538 152.351 111.645 153.046 111.478C153.741 111.31 154.345 110.88 154.73 110.277L161.67 99.4872" fill="#A1482D"/>
<path d="M200.19 55.9172L104.12 0.577228C103.462 0.19843 102.716 -0.000635897 101.956 1.526e-06C101.197 0.000638949 100.451 0.200957 99.7938 0.58086C99.1363 0.960762 98.5903 1.50689 98.2106 2.16445C97.8308 2.82201 97.6306 3.56788 97.6301 4.32723V61.9072C97.634 62.5347 97.8022 63.1501 98.118 63.6923C98.4338 64.2345 98.8862 64.6844 99.4301 64.9972L201.85 124.097C202.202 124.304 202.602 124.413 203.009 124.415C203.417 124.417 203.818 124.311 204.171 124.108C204.525 123.905 204.818 123.612 205.022 123.259C205.225 122.906 205.332 122.505 205.33 122.097V64.7772C205.33 62.9785 204.854 61.2119 203.952 59.656C203.049 58.1002 201.751 56.8104 200.19 55.9172Z" fill="#F47B56"/>
<path d="M104.13 4.92717L197.3 58.5172C198.294 59.0909 199.119 59.9158 199.693 60.9093C200.267 61.9028 200.57 63.0298 200.57 64.1772V107.337C200.562 107.746 200.447 108.146 200.237 108.497C200.028 108.849 199.73 109.14 199.374 109.341C199.018 109.543 198.616 109.649 198.207 109.648C197.797 109.647 197.395 109.54 197.04 109.337L102 54.8972C101.646 54.6953 101.352 54.4046 101.145 54.0539C100.938 53.7031 100.826 53.3044 100.82 52.8972V6.82717C100.823 6.44436 100.926 6.06892 101.118 5.73797C101.311 5.40702 101.586 5.13202 101.917 4.94013C102.249 4.74824 102.624 4.64611 103.007 4.64384C103.39 4.64157 103.767 4.73923 104.1 4.92717H104.13Z" fill="white"/>
<path d="M143.332 86.3372C144.433 86.1252 145.129 84.9334 144.887 83.6752C144.645 82.417 143.556 81.5689 142.455 81.7809C141.354 81.9929 140.658 83.1848 140.9 84.4429C141.143 85.7011 142.232 86.5492 143.332 86.3372Z" fill="#AB643C"/>
<path opacity="0.32" d="M129.17 63.4771L172.47 89.4871L193.86 77.0571L155.64 54.8171" fill="url(#paint3_linear_59_166)"/>
<path d="M182.68 58.3072L135.87 29.7672C135.62 29.6223 135.335 29.5472 135.046 29.5496C134.756 29.552 134.473 29.6319 134.225 29.7809C133.977 29.93 133.773 30.1427 133.635 30.397C133.497 30.6514 133.43 30.938 133.44 31.2272V47.4872C133.435 47.7815 133.508 48.072 133.65 48.3299C133.792 48.5877 133.999 48.8039 134.25 48.9572L181.06 76.8872C181.305 77.0275 181.583 77.1014 181.865 77.1014C182.148 77.1014 182.425 77.0275 182.67 76.8872C182.913 76.7425 183.114 76.5376 183.254 76.2923C183.394 76.047 183.469 75.7697 183.47 75.4872L183.71 60.3272C183.731 59.9298 183.646 59.5339 183.465 59.1794C183.285 58.8248 183.014 58.5241 182.68 58.3072Z" fill="#E2AC00"/>
<path d="M171.48 66.6672C173.16 69.0172 176.11 69.6672 178.06 68.1472C180.01 66.6272 180.25 63.4672 178.57 61.1472C176.89 58.8272 173.94 58.1472 171.98 59.6772C170.02 61.2072 169.8 64.3272 171.48 66.6672Z" fill="white"/>
<path d="M166.89 55.4071L147.79 43.9071C147.627 43.8385 147.444 43.8316 147.276 43.8877C147.108 43.9437 146.966 44.059 146.877 44.212C146.788 44.3649 146.757 44.5451 146.791 44.719C146.824 44.8929 146.92 45.0486 147.06 45.1571L166.15 56.6471C166.312 56.7136 166.492 56.7198 166.658 56.6645C166.824 56.6093 166.965 56.4963 167.055 56.346C167.144 56.1958 167.177 56.0184 167.147 55.846C167.117 55.6737 167.026 55.518 166.89 55.4071Z" fill="#F2F2F2"/>
<path d="M166.1 60.0773L139.78 44.2373C139.62 44.1804 139.444 44.1824 139.285 44.2428C139.125 44.3033 138.993 44.4182 138.91 44.5673C138.827 44.7147 138.798 44.8868 138.83 45.0532C138.861 45.2196 138.949 45.3698 139.08 45.4773L165.37 61.3273C165.533 61.4042 165.719 61.4171 165.892 61.3634C166.064 61.3097 166.21 61.1933 166.3 61.0373C166.404 60.8775 166.441 60.6834 166.404 60.4965C166.366 60.3097 166.257 60.1449 166.1 60.0373V60.0773Z" fill="#F2F2F2"/>
<path d="M173.34 61.4571L126.55 32.9271C126.3 32.7822 126.015 32.7071 125.726 32.7095C125.436 32.7119 125.153 32.7918 124.905 32.9408C124.657 33.0899 124.453 33.3026 124.315 33.5569C124.177 33.8113 124.11 34.0979 124.12 34.3871V50.6371C124.115 50.9315 124.188 51.2219 124.33 51.4798C124.472 51.7376 124.679 51.9539 124.93 52.1071L171.74 79.9971C171.988 80.1427 172.27 80.219 172.557 80.218C172.844 80.217 173.126 80.1387 173.372 79.9915C173.618 79.8442 173.821 79.6333 173.958 79.3809C174.095 79.1286 174.161 78.844 174.15 78.5571L174.4 63.4071C174.413 63.0103 174.322 62.6171 174.136 62.2663C173.95 61.9155 173.676 61.6193 173.34 61.4071V61.4571Z" fill="#F47B56"/>
<path d="M162.14 69.8271C163.82 72.1671 166.77 72.8271 168.72 71.2971C170.67 69.7671 170.91 66.6171 169.23 64.2971C167.55 61.9771 164.6 61.2971 162.64 62.8271C160.68 64.3571 160.46 67.4771 162.14 69.8271Z" fill="white"/>
<path d="M157.54 58.5573L138.44 47.0673C138.276 46.9792 138.085 46.9579 137.905 47.008C137.726 47.0582 137.573 47.1758 137.479 47.3362C137.384 47.4966 137.356 47.6873 137.399 47.8684C137.442 48.0494 137.554 48.2068 137.71 48.3073L156.8 59.8073C156.964 59.882 157.149 59.8937 157.321 59.8401C157.492 59.7866 157.638 59.6717 157.73 59.5173C157.783 59.4386 157.819 59.3502 157.838 59.2573C157.856 59.1644 157.856 59.0687 157.838 58.9758C157.819 58.8829 157.782 58.7946 157.73 58.7159C157.677 58.6372 157.609 58.5698 157.53 58.5173L157.54 58.5573Z" fill="#F2F2F2"/>
<path d="M156.75 63.2572L130.44 47.3872C130.277 47.3102 130.091 47.2973 129.919 47.351C129.746 47.4047 129.601 47.5211 129.51 47.6772C129.406 47.837 129.369 48.031 129.407 48.2179C129.444 48.4047 129.553 48.5696 129.71 48.6772L156 64.4772C156.163 64.5541 156.349 64.567 156.522 64.5133C156.694 64.4596 156.84 64.3432 156.93 64.1872C157.034 64.0274 157.071 63.8333 157.034 63.6464C156.996 63.4596 156.887 63.2948 156.73 63.1872L156.75 63.2572Z" fill="#F2F2F2"/>
<path d="M161.6 63.3673L114.8 34.8473C114.55 34.699 114.265 34.6211 113.974 34.6218C113.683 34.6226 113.398 34.7021 113.149 34.8518C112.9 35.0015 112.696 35.2158 112.559 35.4721C112.422 35.7284 112.357 36.017 112.37 36.3073V52.5573C112.369 52.8508 112.444 53.1395 112.588 53.3953C112.732 53.6512 112.939 53.8654 113.19 54.0173L160 81.9973C160.248 82.142 160.531 82.2177 160.818 82.2164C161.106 82.2151 161.387 82.1369 161.634 81.99C161.881 81.843 162.084 81.6327 162.222 81.3808C162.361 81.1289 162.429 80.8445 162.42 80.5573L162.66 65.4073C162.672 65.0118 162.582 64.6199 162.398 64.2696C162.214 63.9192 161.942 63.6222 161.61 63.4073L161.6 63.3673Z" fill="#68E1FD"/>
<path d="M161.6 63.3673L114.8 34.8473C114.55 34.699 114.265 34.6211 113.974 34.6218C113.683 34.6226 113.398 34.7021 113.149 34.8518C112.9 35.0015 112.696 35.2158 112.559 35.4721C112.422 35.7284 112.357 36.017 112.37 36.3073V52.5573C112.369 52.8508 112.444 53.1395 112.588 53.3953C112.732 53.6512 112.939 53.8654 113.19 54.0173L160 81.9973C160.248 82.142 160.531 82.2177 160.818 82.2164C161.106 82.2151 161.387 82.1369 161.634 81.99C161.881 81.843 162.084 81.6327 162.222 81.3808C162.361 81.1289 162.429 80.8445 162.42 80.5573L162.66 65.4073C162.672 65.0118 162.582 64.6199 162.398 64.2696C162.214 63.9192 161.942 63.6222 161.61 63.4073L161.6 63.3673Z" fill="#68E1FD"/>
<path d="M150.39 71.7371C152.07 74.0871 155.02 74.7371 156.98 73.2071C158.94 71.6771 159.16 68.5371 157.48 66.2071C155.8 63.8771 152.85 63.2071 150.89 64.7371C148.93 66.2671 148.73 69.3871 150.39 71.7371Z" fill="white"/>
<path d="M145.8 60.4672L126.7 48.9972C126.537 48.9286 126.354 48.9217 126.186 48.9777C126.018 49.0338 125.876 49.1491 125.787 49.302C125.698 49.455 125.667 49.6352 125.701 49.8091C125.734 49.983 125.83 50.1387 125.97 50.2472L145.06 61.7372C145.223 61.8166 145.41 61.8308 145.583 61.7769C145.756 61.723 145.901 61.605 145.99 61.4472C146.043 61.3685 146.079 61.2801 146.098 61.1872C146.116 61.0943 146.116 60.9986 146.098 60.9057C146.079 60.8128 146.042 60.7245 145.99 60.6458C145.937 60.5671 145.869 60.4996 145.79 60.4472L145.8 60.4672Z" fill="#F2F2F2"/>
<path d="M145 65.1473L118.69 49.3073C118.527 49.2386 118.344 49.2317 118.176 49.2878C118.008 49.3439 117.866 49.4591 117.777 49.6121C117.688 49.7651 117.657 49.9453 117.691 50.1192C117.724 50.2931 117.82 50.4488 117.96 50.5573L144.27 66.3973C144.434 66.4733 144.621 66.4857 144.794 66.4321C144.966 66.3784 145.113 66.2625 145.205 66.1068C145.297 65.9511 145.328 65.7668 145.292 65.5895C145.256 65.4122 145.156 65.2546 145.01 65.1473H145Z" fill="#F2F2F2"/>
<path d="M100.18 61.7773C97.1561 64.3799 94.8696 67.732 93.5502 71.4973C91.2202 77.9273 97.0002 88.4373 97.0002 88.4373L106.06 81.2673" fill="#FF8F6F"/>
<path d="M99.2001 146.797L96.7401 145.447L97.3901 141.927C97.3901 141.927 101.05 142.277 101.39 143.577" fill="#003B94"/>
<path d="M100.1 146.747C100.66 146.407 101.23 146.107 101.81 145.807C103.23 145.027 105.28 144.217 106.16 142.757C106.338 142.463 106.421 142.122 106.4 141.778C106.379 141.435 106.253 141.107 106.04 140.837C104.75 139.277 101.94 141.837 100.49 140.107C100.21 139.767 100.08 134.367 100.08 134.367L94.6001 135.837C94.6001 135.837 93.6701 146.707 93.7701 147.377C93.8701 148.047 95.7701 148.667 95.7701 148.667C96.3317 148.548 96.8669 148.327 97.3501 148.017C97.9301 147.607 97.3501 142.507 98.1401 143.217C98.9301 143.927 99.1901 146.727 99.1901 146.727C99.4917 146.768 99.797 146.775 100.1 146.747Z" fill="#F47B56"/>
<path d="M109.67 152.057L107.21 150.717L107.85 147.207C107.85 147.207 111.51 147.557 111.85 148.847" fill="#003B94"/>
<path d="M110.59 151.997C111.15 151.647 111.73 151.347 112.3 151.047C113.72 150.267 115.77 149.467 116.65 148.047C116.827 147.751 116.911 147.408 116.889 147.064C116.868 146.719 116.743 146.389 116.53 146.117C115.24 144.557 112.43 147.117 110.99 145.397C110.7 145.057 110.57 139.647 110.57 139.647L105.09 141.127C105.09 141.127 104.15 152.037 104.26 152.677C104.37 153.317 106.26 153.957 106.26 153.957C106.822 153.844 107.358 153.627 107.84 153.317C108.41 152.897 107.84 147.797 108.62 148.517C109.4 149.237 109.68 152.017 109.68 152.017C109.983 152.05 110.289 152.043 110.59 151.997Z" fill="#F47B56"/>
<path d="M91.8102 116.727L90.2002 138.307C90.2002 138.307 92.7702 141.857 101.4 139.887L101.48 125.337" fill="#3E2928"/>
<path d="M101.77 120.997C101.59 122.857 101.77 143.357 101.77 143.357C101.77 143.357 104.16 147.827 114.55 143.357L114.4 125.937" fill="#3E2928"/>
<path d="M91.0001 123.857C91.7001 124.347 91.9501 121.857 92.6901 122.257C95.3841 123.82 98.2455 125.074 101.22 125.997H101.28C101.428 125.937 101.593 125.937 101.74 125.997C101.814 126.025 101.881 126.068 101.938 126.123C101.995 126.178 102.04 126.244 102.07 126.317C103.905 126.859 105.772 127.287 107.66 127.597C110.09 127.987 112.09 126.197 114.58 126.067C114.58 116.537 114.58 89.4172 110.58 83.6272L98.5801 79.6272C98.5201 80.6272 92.7501 87.3072 92.8901 95.4572C92.8695 102.388 92.4556 109.313 91.6501 116.197C91.6001 116.637 91.0001 123.337 91.0001 123.857Z" fill="#3E2928"/>
<path d="M111.67 72.6573L110.57 83.5873C110.57 83.5873 101.57 83.9473 97.7501 81.2873V71.9973" fill="#FF8F6F"/>
<path d="M123.07 65.4572L122.15 66.7072C122.642 65.6937 123.072 64.6519 123.44 63.5872C123.7 62.8672 122.53 62.5872 122.28 63.2972L122.14 63.6772C122.25 63.2872 122.36 62.8972 122.46 62.5072C122.499 62.3521 122.474 62.188 122.391 62.0511C122.309 61.9142 122.175 61.8157 122.02 61.7772C121.865 61.7388 121.701 61.7635 121.564 61.846C121.427 61.9286 121.329 62.0621 121.29 62.2172C121.042 63.2331 120.738 64.2346 120.38 65.2172C120.578 64.3471 120.722 63.4653 120.81 62.5772C120.89 61.8172 119.68 61.8472 119.61 62.5772C119.511 63.5901 119.33 64.5934 119.07 65.5772C119.068 65.242 119.038 64.9075 118.98 64.5772C118.97 64.491 118.942 64.4079 118.897 64.3337C118.852 64.2595 118.792 64.1958 118.72 64.1472C118.72 64.0172 118.65 63.8872 118.61 63.7472C118.561 63.6139 118.468 63.5014 118.346 63.4286C118.224 63.3558 118.081 63.3271 117.94 63.3472C117.8 63.3684 117.673 63.4382 117.579 63.5443C117.486 63.6504 117.433 63.786 117.43 63.9272L117.35 68.4272C117.136 68.8964 116.852 69.3312 116.51 69.7172C117.09 70.1127 117.648 70.54 118.18 70.9972C118.661 71.3977 119.118 71.8251 119.55 72.2772C119.93 71.7972 120.3 71.2772 120.66 70.8172L120.78 70.6872C121.847 69.0939 122.953 67.5339 124.1 66.0072C124.57 65.4372 123.52 64.8472 123.07 65.4572Z" fill="#FFB5A9"/>
<path d="M106 62.6873C106 62.6873 110.23 63.8273 112 66.5473C113.073 68.4318 114.019 70.3862 114.83 72.3973L117.96 67.5373C117.96 67.5373 121.76 68.7073 123.26 70.5373C123.26 70.5373 118.76 80.3773 114.83 81.2173C110.9 82.0573 106.74 75.4473 106.74 75.4473C106.74 75.4473 105.88 78.2073 106.05 75.2573" fill="#FF8F6F"/>
<path d="M108.68 73.2071C107.455 72.2023 106.528 70.8812 106 69.3871C105.5 67.6571 106.13 66.1371 106.72 64.5271C107.368 62.9346 107.743 61.2443 107.83 59.5271C107.827 57.8572 107.74 56.1884 107.57 54.5271C107.56 54.4541 107.56 54.3801 107.57 54.3071C107.01 52.4071 105.85 50.7971 103.57 50.6071C97.6602 50.1071 97.3202 56.6071 97.3702 59.3171C97.4202 62.0271 97.6902 63.7771 95.7302 64.8871C93.7702 65.9971 92.3502 68.8871 94.2302 71.2871C96.1102 73.6871 94.4202 72.7771 93.1702 74.8771C91.9202 76.9771 92.2502 79.5871 94.8102 80.5371C97.3702 81.4871 109.27 79.7071 110.36 78.6071C110.75 78.1641 110.951 77.5863 110.92 76.9971C110.652 75.5195 109.861 74.1881 108.69 73.2471L108.68 73.2071Z" fill="#007F68"/>
<path d="M114.49 19.2072C115.489 20.6509 116.068 22.3439 116.16 24.0972C116.277 24.8982 116.084 25.7136 115.62 26.3772C115.422 26.5941 115.157 26.7392 114.868 26.7898C114.578 26.8405 114.28 26.7938 114.02 26.6572C113.696 26.5258 113.403 26.3283 113.16 26.0772C112.942 25.8737 112.756 25.6375 112.61 25.3772L112.45 25.0772C112.41 25.1565 112.359 25.2304 112.3 25.2972C112.144 25.413 111.962 25.4886 111.77 25.5172C111.434 25.5869 111.084 25.5484 110.77 25.4072C110.06 25.0965 109.468 24.5675 109.08 23.8972C108.62 23.1646 108.364 22.322 108.34 21.4572C108.291 21.1111 108.319 20.7585 108.423 20.4247C108.527 20.0909 108.703 19.7844 108.94 19.5272C109.144 19.3321 109.403 19.2037 109.681 19.159C109.96 19.1143 110.246 19.1556 110.5 19.2772C110.755 19.3866 110.991 19.5351 111.2 19.7172C111.376 19.8649 111.531 20.0366 111.66 20.2272L111.78 20.4372V19.8572L113.07 20.3572L113.19 23.9772C113.199 24.2383 113.283 24.4915 113.43 24.7072C113.552 24.9125 113.734 25.0763 113.95 25.1772C114.57 25.4172 114.86 24.8772 114.82 23.5672C114.752 22.2609 114.319 20.9999 113.57 19.9272C112.904 18.8338 111.905 17.9823 110.72 17.4972C110.292 17.2818 109.809 17.1992 109.333 17.2597C108.858 17.3203 108.411 17.5214 108.05 17.8372C107.67 18.2311 107.383 18.7049 107.21 19.224C107.037 19.743 106.983 20.2942 107.05 20.8372C107.127 22.2129 107.573 23.5426 108.34 24.6872C108.949 25.8258 109.915 26.7324 111.09 27.2672C111.496 27.4354 111.931 27.5204 112.37 27.5172C112.659 27.535 112.948 27.48 113.21 27.3572L113.47 27.2172L114.24 28.6672L114.12 28.7572C113.998 28.8253 113.871 28.8854 113.74 28.9372C113.533 29.026 113.314 29.0866 113.09 29.1172C112.808 29.1575 112.522 29.1575 112.24 29.1172C111.867 29.07 111.5 28.976 111.15 28.8372C110.159 28.4134 109.28 27.7666 108.58 26.9472C107.744 26.0296 107.068 24.9784 106.58 23.8372C106.093 22.7451 105.815 21.5716 105.76 20.3772C105.689 19.3748 105.893 18.372 106.35 17.4772C106.729 16.7266 107.386 16.1528 108.18 15.8772C109.01 15.5991 109.914 15.6456 110.71 16.0072C112.27 16.6635 113.588 17.7888 114.48 19.2272L114.49 19.2072ZM111.66 23.7872C111.769 23.6466 111.847 23.4855 111.892 23.3137C111.937 23.1419 111.946 22.9628 111.92 22.7872C111.906 22.3686 111.79 21.9599 111.58 21.5972C111.403 21.2858 111.129 21.0402 110.8 20.8972C110.675 20.8287 110.531 20.8015 110.389 20.8195C110.247 20.8374 110.115 20.8996 110.01 20.9972C109.898 21.122 109.815 21.2701 109.766 21.4309C109.718 21.5916 109.705 21.7611 109.73 21.9272C109.742 22.3519 109.866 22.7659 110.09 23.1272C110.276 23.454 110.564 23.7106 110.91 23.8572C111.031 23.9196 111.168 23.9426 111.303 23.9228C111.437 23.9031 111.562 23.8417 111.66 23.7472" fill="#F47B56"/>
<path d="M190.44 88.8473C191.442 90.2895 192.021 91.9834 192.11 93.7373C192.226 94.5382 192.033 95.3533 191.57 96.0173C191.371 96.2325 191.105 96.3757 190.816 96.4245C190.527 96.4734 190.229 96.4251 189.97 96.2873C189.647 96.1594 189.354 95.9652 189.11 95.7173C188.894 95.5082 188.708 95.2691 188.56 95.0073L188.4 94.7073C188.359 94.7866 188.309 94.8605 188.25 94.9273C188.095 95.0463 187.913 95.1253 187.72 95.1573C187.4 95.2164 187.069 95.1781 186.77 95.0473C186.061 94.7346 185.472 94.2015 185.09 93.5273C184.621 92.798 184.362 91.954 184.34 91.0873C184.291 90.742 184.318 90.3901 184.42 90.0566C184.522 89.7231 184.696 89.4161 184.93 89.1573C185.132 88.9596 185.391 88.8295 185.67 88.7847C185.95 88.74 186.236 88.7828 186.49 88.9073C186.75 89.0068 186.988 89.1563 187.19 89.3473C187.367 89.4975 187.525 89.6688 187.66 89.8573L187.78 90.0673V89.4973L189.06 89.9873L189.19 93.6073C189.201 93.8636 189.28 94.1122 189.42 94.3273C189.543 94.5358 189.728 94.7003 189.95 94.7973C190.6 95.0473 190.86 94.5073 190.82 93.1873C190.759 91.8842 190.329 90.6252 189.58 89.5573C188.91 88.4705 187.917 87.6207 186.74 87.1273C186.311 86.9097 185.827 86.8249 185.35 86.8837C184.872 86.9425 184.423 87.1422 184.06 87.4573C183.68 87.8511 183.393 88.325 183.22 88.844C183.047 89.3631 182.993 89.9143 183.06 90.4573C183.133 91.8338 183.579 93.1647 184.35 94.3073C184.983 95.4162 185.958 96.2899 187.13 96.7973C187.535 96.9686 187.97 97.057 188.41 97.0573C188.698 97.0734 188.986 97.022 189.25 96.9073L189.51 96.7573L190.28 98.2073L190.16 98.2973C190.037 98.3654 189.91 98.4255 189.78 98.4773C189.572 98.5661 189.354 98.6267 189.13 98.6573C188.845 98.6972 188.555 98.6972 188.27 98.6573C187.9 98.6089 187.537 98.5148 187.19 98.3773C186.201 97.9513 185.322 97.3048 184.62 96.4873C183.782 95.5679 183.105 94.5129 182.62 93.3673C182.129 92.2803 181.85 91.1091 181.8 89.9173C181.728 88.918 181.932 87.9182 182.39 87.0273C182.771 86.2736 183.426 85.694 184.22 85.4073C185.054 85.1392 185.958 85.1854 186.76 85.5373C188.298 86.2363 189.583 87.3921 190.44 88.8473ZM187.6 93.4173C187.713 93.2792 187.796 93.1187 187.843 92.9463C187.889 92.7739 187.899 92.5936 187.87 92.4173C187.859 91.9982 187.742 91.5888 187.53 91.2273C187.36 90.9114 187.089 90.6615 186.76 90.5173C186.632 90.4508 186.487 90.4248 186.345 90.4427C186.202 90.4606 186.068 90.5214 185.96 90.6173C185.849 90.7434 185.766 90.8913 185.716 91.0515C185.667 91.2117 185.651 91.3806 185.67 91.5473C185.692 91.9687 185.819 92.3778 186.04 92.7373C186.225 93.0669 186.513 93.3268 186.86 93.4773C186.979 93.5389 187.115 93.5614 187.248 93.5417C187.381 93.5219 187.504 93.4609 187.6 93.3673" fill="#F47B56"/>
<path opacity="0.25" d="M62.2501 116.267L40.4801 103.877L18.7101 116.287C18.7101 116.287 30.8201 123.857 41.6601 130.207C48.5501 125.347 54.6601 119.787 62.2501 116.267Z" fill="url(#paint4_linear_59_166)"/>
<path fill-rule="evenodd" clip-rule="evenodd" d="M22.9302 81.4673V108.407L43.9102 120.417L67.6102 106.407V79.4773" fill="black"/>
<path fill-rule="evenodd" clip-rule="evenodd" d="M22.9302 81.4673V108.407L43.9102 120.417L67.6102 106.407V79.4773" fill="#FF9271"/>
<path d="M43.9102 93.4873V120.417L67.6102 106.407V79.4773L43.9102 93.4873Z" fill="#DF5C34"/>
<path d="M22.9302 81.4672L47.2802 67.5872L67.6102 79.4772L43.9102 93.4872L22.9302 81.4672Z" fill="#F47B56"/>
<path d="M44.4702 73.7772C46.9374 73.6064 49.4018 74.1478 51.5702 75.3372C52.8202 76.0672 53.5002 76.8272 53.5702 77.6272C53.5982 78.0624 53.49 78.4956 53.2606 78.8665C53.0313 79.2374 52.6921 79.5278 52.2902 79.6972C51.831 79.9779 51.327 80.1774 50.8002 80.2872C50.3643 80.3886 49.9176 80.4356 49.4702 80.4272H48.9902C49.0307 80.5375 49.0608 80.6513 49.0802 80.7672C49.0595 81.0416 48.9701 81.3064 48.8202 81.5372C48.5602 81.9538 48.199 82.2978 47.7702 82.5372C46.7568 83.1358 45.5969 83.4405 44.4202 83.4172C43.2216 83.4384 42.0397 83.1343 41.0002 82.5372C40.5847 82.3532 40.2236 82.0651 39.9521 81.7007C39.6806 81.3363 39.5077 80.908 39.4502 80.4572C39.4558 80.0376 39.5787 79.628 39.8049 79.2746C40.0311 78.9211 40.3516 78.638 40.7302 78.4572C41.0859 78.2495 41.4699 78.0946 41.8702 77.9972C42.1957 77.9017 42.5314 77.8446 42.8702 77.8272H43.2202L42.5802 77.4372L44.3802 76.3172L48.5502 78.7772C48.8697 78.9496 49.2271 79.0399 49.5902 79.0399C49.9533 79.0399 50.3107 78.9496 50.6302 78.7772C51.5102 78.2172 51.1902 77.4972 49.6802 76.5972C48.0681 75.7108 46.2358 75.3048 44.4002 75.4272C42.4625 75.449 40.5664 75.9912 38.9102 76.9972C37.4002 77.9972 36.6502 79.0672 36.6602 80.3772C36.6702 81.6872 37.4602 82.8072 39.0202 83.7172C40.7233 84.6492 42.651 85.0922 44.5902 84.9972C46.5266 85.03 48.4341 84.5245 50.1002 83.5372C50.6751 83.1947 51.1916 82.7626 51.6302 82.2572C51.92 81.9445 52.1384 81.5726 52.2702 81.1672L52.3602 80.7572L54.7402 80.8972V81.1072C54.6941 81.3035 54.6374 81.4971 54.5702 81.6872C54.46 81.9857 54.3228 82.2736 54.1602 82.5472C53.9127 82.9094 53.6278 83.2446 53.3102 83.5472C52.8906 83.9531 52.4279 84.3119 51.9302 84.6172C50.4998 85.4725 48.9173 86.043 47.2702 86.2972C45.4723 86.607 43.6373 86.6374 41.8302 86.3872C40.1881 86.1953 38.6006 85.6786 37.1602 84.8672C35.9999 84.2463 35.0706 83.2679 34.5102 82.0772C34.2824 81.5587 34.1648 80.9985 34.1648 80.4322C34.1648 79.8658 34.2824 79.3057 34.5102 78.7872C35.059 77.5724 35.9801 76.5637 37.1402 75.9072C39.3466 74.5477 41.8789 73.8084 44.4702 73.7672V73.7772ZM46.8002 80.4072C46.7609 80.187 46.6671 79.9801 46.5274 79.8054C46.3876 79.6307 46.2064 79.4938 46.0002 79.4072C45.4935 79.1243 44.9203 78.9827 44.3402 78.9972C43.7955 78.9762 43.2567 79.1153 42.7902 79.3972C42.6012 79.4881 42.4413 79.6297 42.3283 79.8063C42.2152 79.9829 42.1536 80.1875 42.1502 80.3972C42.1784 80.6144 42.2622 80.8206 42.3936 80.9958C42.5251 81.171 42.6996 81.3093 42.9002 81.3972C43.4188 81.6885 44.0054 81.8368 44.6002 81.8272C45.1726 81.8356 45.7364 81.6869 46.2302 81.3972C46.4222 81.3142 46.5834 81.1731 46.691 80.9937C46.7987 80.8143 46.8473 80.6057 46.8302 80.3972" fill="#3E2928"/>
<defs>
<linearGradient id="paint0_linear_59_166" x1="139.046" y1="101.326" x2="132.281" y2="110.838" gradientUnits="userSpaceOnUse">
<stop stop-color="#7F3500"/>
<stop offset="1" stop-color="#231F20" stop-opacity="0"/>
</linearGradient>
<linearGradient id="paint1_linear_59_166" x1="110.771" y1="144.05" x2="96.2652" y2="160.129" gradientUnits="userSpaceOnUse">
<stop offset="0.03" stop-color="#7F3500"/>
<stop offset="1" stop-color="#231F20" stop-opacity="0"/>
</linearGradient>
<linearGradient id="paint2_linear_59_166" x1="78.7765" y1="75.9873" x2="67.7436" y2="87.9356" gradientUnits="userSpaceOnUse">
<stop stop-color="#843C09" stop-opacity="0.85"/>
<stop offset="1" stop-color="#231F20" stop-opacity="0"/>
</linearGradient>
<linearGradient id="paint3_linear_59_166" x1="181.668" y1="75.4435" x2="175.129" y2="70.2147" gradientUnits="userSpaceOnUse">
<stop stop-color="white" stop-opacity="0"/>
<stop offset="0.99" stop-color="#DC841E"/>
</linearGradient>
<linearGradient id="paint4_linear_59_166" x1="54.9583" y1="110.386" x2="40.2639" y2="126.741" gradientUnits="userSpaceOnUse">
<stop offset="0.03" stop-color="#7F3500"/>
<stop offset="1" stop-color="#231F20" stop-opacity="0"/>
</linearGradient>
</defs>
</svg>
